<svg width="28" height="28" viewBox="0 0 28 28" fill="none" xmlns="http://www.w3.org/2000/svg">
<g clip-path="url(#clip0_559_1480)">
<path d="M20.6136 11.7124C21.2498 9.93975 23.0822 4.81219 23.0822 3.17006C23.0822 1.72369 22.2285 0.511125 20.706 0.511125C18.2809 0.511125 16.1059 7.67231 15.4262 9.37969C14.8988 7.83 12.4301 0 10.2551 0C8.56409 0 7.77021 1.24519 7.77021 2.81119C7.77021 4.73063 9.62984 9.70594 10.3041 11.6199C9.96152 11.4949 9.59177 11.3861 9.21659 11.3861C7.94421 11.3861 6.59027 12.9684 6.59027 14.2463C6.59027 14.7302 6.85671 15.4099 7.02527 15.8612C5.01884 16.4049 4.24671 17.7426 4.24671 19.7599C4.24127 23.6857 7.96052 27.84 13.1914 27.84C19.6076 27.84 23.5988 23.0224 23.5988 16.8073C23.5988 14.4638 23.2236 12.3486 20.6136 11.7124ZM18.6887 5.8725C18.9062 5.20369 19.836 2.37619 20.706 2.37619C21.1736 2.37619 21.2987 2.86013 21.2987 3.24619C21.2987 4.28475 19.1998 10.0213 18.7376 11.2937L16.8889 10.9674L18.6887 5.8725ZM9.47759 2.62631C9.47759 1.97925 10.266 0.141375 11.9951 5.18738L13.8765 10.6412C13.0283 10.5705 12.3703 10.4781 11.9516 10.7173C11.359 9.15131 9.47759 4.20862 9.47759 2.62631ZM9.35252 13.2675C10.9457 13.2675 13.0011 18.4114 13.0011 19.1074C13.0011 19.3847 12.7346 19.7272 12.4247 19.7272C11.2883 19.7272 8.24327 15.5458 8.24327 14.4148C8.24871 13.9961 8.93384 13.2675 9.35252 13.2675ZM19.3738 23.3976C17.7915 25.1376 15.7688 26.0402 13.4089 26.0402C10.179 26.0402 7.62884 24.2676 6.39996 21.2389C5.47015 18.879 6.60659 17.5251 7.52009 17.5251C8.13996 17.5251 10.4726 20.8039 10.4726 21.4999C10.4726 21.7663 10.054 21.9512 9.83646 21.9512C8.96102 21.9512 8.61846 21.1084 7.0579 19.1563C5.44296 20.7712 8.17259 23.8815 10.228 23.8815C11.6471 23.8815 12.5715 22.5656 12.2942 21.5978C12.4954 21.5978 12.7455 21.6141 12.9304 21.5651C12.9902 23.0387 13.4252 24.795 15.1978 24.9201C15.1978 24.8711 15.3066 24.534 15.3066 24.5177C15.3066 23.5716 14.7302 22.7451 14.7302 21.7826C14.7302 20.2438 15.9101 18.7539 17.1064 17.8839C17.5414 17.5577 18.0688 17.3565 18.58 17.1716C19.1074 16.9704 19.6675 16.7366 20.0698 16.3342C20.01 15.7252 19.7599 15.1869 19.1509 15.1869C17.6447 15.1869 12.5933 15.4044 12.5933 13.0283C12.5933 12.6639 12.5987 12.3159 13.5394 12.3159C15.2957 12.3159 19.7545 12.7509 21.0595 13.8983C22.0436 14.7737 22.3808 20.0535 19.3738 23.3976ZM14.0125 16.5463C14.5399 16.7149 15.0836 16.7638 15.6274 16.8726C15.225 17.1662 14.8661 17.5251 14.5236 17.9111C14.3713 17.4489 14.1865 16.9976 14.0125 16.5463Z" fill="#98A2B3"/>
</g>
<defs>
<clipPath id="clip0_559_1480">
<rect width="27.84" height="27.84" fill="white"/>
</clipPath>
</defs>
</svg>
