<svg width="28" height="28" viewBox="0 0 28 28" fill="none" xmlns="http://www.w3.org/2000/svg">
<g clip-path="url(#clip0_559_1478)">
<path d="M27.84 13.92C27.84 6.23219 21.6078 0 13.92 0C6.23219 0 0 6.23219 0 13.92C0 20.8678 5.09032 26.6266 11.745 27.6709V17.9438H8.21062V13.92H11.745V10.8533C11.745 7.36455 13.8232 5.4375 17.0028 5.4375C18.5253 5.4375 20.1187 5.70937 20.1187 5.70937V9.135H18.3635C16.6344 9.135 16.095 10.2081 16.095 11.31V13.92H19.9556L19.3385 17.9438H16.095V27.6709C22.7497 26.6266 27.84 20.8678 27.84 13.92Z" fill="#98A2B3"/>
</g>
<defs>
<clipPath id="clip0_559_1478">
<rect width="27.84" height="27.84" fill="white"/>
</clipPath>
</defs>
</svg>
