<svg width="28" height="28" viewBox="0 0 28 28" fill="none" xmlns="http://www.w3.org/2000/svg">
<path fill-rule="evenodd" clip-rule="evenodd" d="M13.92 0C6.23198 0 0 6.24173 0 13.9437C0 20.1033 3.98808 25.3302 9.51989 27.1732C10.2159 27.3013 10.4692 26.8712 10.4692 26.5009C10.4692 26.171 10.4581 25.2926 10.4511 24.1303C6.57859 24.9725 5.76149 22.2609 5.76149 22.2609C5.12952 20.6489 4.21637 20.2202 4.21637 20.2202C2.95243 19.3572 4.31242 19.3739 4.31242 19.3739C5.70859 19.4713 6.44357 20.8104 6.44357 20.8104C7.68523 22.9402 9.70224 22.3249 10.4943 21.9685C10.6224 21.0679 10.9815 20.454 11.3796 20.106C8.28936 19.7539 5.03904 18.5568 5.03904 13.2143C5.03904 11.6928 5.58192 10.447 6.47141 9.47256C6.32803 9.12038 5.85058 7.70194 6.60782 5.78376C6.60782 5.78376 7.7771 5.40792 10.4358 7.21195C11.5714 6.90225 12.743 6.74451 13.92 6.74285C15.1032 6.74842 16.2934 6.90293 17.4056 7.21195C20.0629 5.40792 21.2294 5.78237 21.2294 5.78237C21.9894 7.70194 21.5106 9.12038 21.3686 9.47256C22.2595 10.447 22.7996 11.6928 22.7996 13.2143C22.7996 18.5707 19.5437 19.7497 16.4437 20.0949C16.9434 20.525 17.3875 21.3756 17.3875 22.6771C17.3875 24.5396 17.3708 26.0443 17.3708 26.5009C17.3708 26.874 17.6213 27.3083 18.3285 27.1718C21.1003 26.2421 23.51 24.4648 25.2167 22.0911C26.9235 19.7174 27.8412 16.8673 27.84 13.9437C27.84 6.24173 21.6066 0 13.92 0Z" fill="#98A2B3"/>
</svg>
