<svg width="28" height="28" viewBox="0 0 28 28" fill="none" xmlns="http://www.w3.org/2000/svg">
<path d="M25.7792 0H2.05537C0.918937 0 0 0.897188 0 2.00644V25.8281C0 26.9374 0.918937 27.84 2.05537 27.84H25.7792C26.9156 27.84 27.84 26.9374 27.84 25.8336V2.00644C27.84 0.897188 26.9156 0 25.7792 0ZM8.25956 23.7238H4.12706V10.4346H8.25956V23.7238ZM6.19331 8.62387C4.86656 8.62387 3.79538 7.55269 3.79538 6.23137C3.79538 4.91006 4.86656 3.83887 6.19331 3.83887C7.51463 3.83887 8.58581 4.91006 8.58581 6.23137C8.58581 7.54725 7.51463 8.62387 6.19331 8.62387ZM23.7238 23.7238H19.5967V17.2641C19.5967 15.7252 19.5696 13.7406 17.4489 13.7406C15.3011 13.7406 14.9749 15.4207 14.9749 17.1553V23.7238H10.8533V10.4346H14.8117V12.2507H14.8661C15.4153 11.2067 16.7638 10.1029 18.7703 10.1029C22.9517 10.1029 23.7238 12.8542 23.7238 16.4321V23.7238Z" fill="#98A2B3"/>
</svg>
