<svg width="18" height="18" viewBox="0 0 18 18" fill="none" xmlns="http://www.w3.org/2000/svg">
<path d="M10.3125 7.5C10.7267 7.5 11.0625 7.16421 11.0625 6.75C11.0625 6.33579 10.7267 6 10.3125 6C9.89829 6 9.5625 6.33579 9.5625 6.75C9.5625 7.16421 9.89829 7.5 10.3125 7.5Z" stroke="#FEFEFE" stroke-miterlimit="10"/>
<path d="M7.6875 7.5C8.10171 7.5 8.4375 7.16421 8.4375 6.75C8.4375 6.33579 8.10171 6 7.6875 6C7.27329 6 6.9375 6.33579 6.9375 6.75C6.9375 7.16421 7.27329 7.5 7.6875 7.5Z" stroke="#FEFEFE" stroke-miterlimit="10"/>
<path d="M11.625 9.75C12.0392 9.75 12.375 9.41421 12.375 9C12.375 8.58579 12.0392 8.25 11.625 8.25C11.2108 8.25 10.875 8.58579 10.875 9C10.875 9.41421 11.2108 9.75 11.625 9.75Z" stroke="#FEFEFE" stroke-miterlimit="10"/>
<path d="M12.8625 7.3125C13.1732 7.3125 13.425 7.06066 13.425 6.75C13.425 6.43934 13.1732 6.1875 12.8625 6.1875C12.5519 6.1875 12.3 6.43934 12.3 6.75C12.3 7.06066 12.5519 7.3125 12.8625 7.3125Z" stroke="#FEFEFE" stroke-miterlimit="10"/>
<path d="M12.8625 11.8125C13.1732 11.8125 13.425 11.5607 13.425 11.25C13.425 10.9393 13.1732 10.6875 12.8625 10.6875C12.5519 10.6875 12.3 10.9393 12.3 11.25C12.3 11.5607 12.5519 11.8125 12.8625 11.8125Z" stroke="#FEFEFE" stroke-miterlimit="10"/>
<path d="M14.8125 9.5625C15.1232 9.5625 15.375 9.31066 15.375 9C15.375 8.68934 15.1232 8.4375 14.8125 8.4375C14.5018 8.4375 14.25 8.68934 14.25 9C14.25 9.31066 14.5018 9.5625 14.8125 9.5625Z" stroke="#FEFEFE" stroke-miterlimit="10"/>
<path d="M5.09998 7.3125C5.41064 7.3125 5.66248 7.06066 5.66248 6.75C5.66248 6.43934 5.41064 6.1875 5.09998 6.1875C4.78932 6.1875 4.53748 6.43934 4.53748 6.75C4.53748 7.06066 4.78932 7.3125 5.09998 7.3125Z" stroke="#FEFEFE" stroke-miterlimit="10"/>
<path d="M5.09998 11.8125C5.41064 11.8125 5.66248 11.5607 5.66248 11.25C5.66248 10.9393 5.41064 10.6875 5.09998 10.6875C4.78932 10.6875 4.53748 10.9393 4.53748 11.25C4.53748 11.5607 4.78932 11.8125 5.09998 11.8125Z" stroke="#FEFEFE" stroke-miterlimit="10"/>
<path d="M3.15002 9.5625C3.46068 9.5625 3.71252 9.31066 3.71252 9C3.71252 8.68934 3.46068 8.4375 3.15002 8.4375C2.83936 8.4375 2.58752 8.68934 2.58752 9C2.58752 9.31066 2.83936 9.5625 3.15002 9.5625Z" stroke="#FEFEFE" stroke-miterlimit="10"/>
<path d="M11.925 4.46249C12.2357 4.46249 12.4875 4.21065 12.4875 3.89999C12.4875 3.58933 12.2357 3.33749 11.925 3.33749C11.6144 3.33749 11.3625 3.58933 11.3625 3.89999C11.3625 4.21065 11.6144 4.46249 11.925 4.46249Z" stroke="#FEFEFE" stroke-miterlimit="10"/>
<path d="M6.07495 4.46249C6.38561 4.46249 6.63745 4.21065 6.63745 3.89999C6.63745 3.58933 6.38561 3.33749 6.07495 3.33749C5.76429 3.33749 5.51245 3.58933 5.51245 3.89999C5.51245 4.21065 5.76429 4.46249 6.07495 4.46249Z" stroke="#FEFEFE" stroke-miterlimit="10"/>
<path d="M9.03748 5.0625C9.34814 5.0625 9.59998 4.81066 9.59998 4.5C9.59998 4.18934 9.34814 3.9375 9.03748 3.9375C8.72682 3.9375 8.47498 4.18934 8.47498 4.5C8.47498 4.81066 8.72682 5.0625 9.03748 5.0625Z" stroke="#FEFEFE" stroke-miterlimit="10"/>
<path d="M11.925 14.8125C12.2357 14.8125 12.4875 14.5607 12.4875 14.25C12.4875 13.9393 12.2357 13.6875 11.925 13.6875C11.6144 13.6875 11.3625 13.9393 11.3625 14.25C11.3625 14.5607 11.6144 14.8125 11.925 14.8125Z" stroke="#FEFEFE" stroke-miterlimit="10"/>
<path d="M6.07495 14.8125C6.38561 14.8125 6.63745 14.5607 6.63745 14.25C6.63745 13.9393 6.38561 13.6875 6.07495 13.6875C5.76429 13.6875 5.51245 13.9393 5.51245 14.25C5.51245 14.5607 5.76429 14.8125 6.07495 14.8125Z" stroke="#FEFEFE" stroke-miterlimit="10"/>
<path d="M9.03748 14.2125C9.34814 14.2125 9.59998 13.9607 9.59998 13.65C9.59998 13.3393 9.34814 13.0875 9.03748 13.0875C8.72682 13.0875 8.47498 13.3393 8.47498 13.65C8.47498 13.9607 8.72682 14.2125 9.03748 14.2125Z" stroke="#FEFEFE" stroke-miterlimit="10"/>
<path d="M6.375 9.75C6.78921 9.75 7.125 9.41421 7.125 9C7.125 8.58579 6.78921 8.25 6.375 8.25C5.96079 8.25 5.625 8.58579 5.625 9C5.625 9.41421 5.96079 9.75 6.375 9.75Z" stroke="#FEFEFE" stroke-miterlimit="10"/>
<path d="M7.6875 12C8.10171 12 8.4375 11.6642 8.4375 11.25C8.4375 10.8358 8.10171 10.5 7.6875 10.5C7.27329 10.5 6.9375 10.8358 6.9375 11.25C6.9375 11.6642 7.27329 12 7.6875 12Z" stroke="#FEFEFE" stroke-miterlimit="10"/>
<path d="M10.3125 12C10.7267 12 11.0625 11.6642 11.0625 11.25C11.0625 10.8358 10.7267 10.5 10.3125 10.5C9.89829 10.5 9.5625 10.8358 9.5625 11.25C9.5625 11.6642 9.89829 12 10.3125 12Z" stroke="#FEFEFE" stroke-miterlimit="10"/>
<path d="M9 1.83752V1.83752" stroke="#FEFEFE" stroke-width="2" stroke-linecap="round" stroke-linejoin="round"/>
<path d="M13.125 2.13748V2.13748" stroke="#FEFEFE" stroke-width="1.5" stroke-linecap="round" stroke-linejoin="round"/>
<path d="M13.125 15.9V15.9" stroke="#FEFEFE" stroke-width="1.5" stroke-linecap="round" stroke-linejoin="round"/>
<path d="M15 12.375V12.375" stroke="#FEFEFE" stroke-width="1.5" stroke-linecap="round" stroke-linejoin="round"/>
<path d="M15 5.25V5.25" stroke="#FEFEFE" stroke-width="1.5" stroke-linecap="round" stroke-linejoin="round"/>
<path d="M3 12.375V12.375" stroke="#FEFEFE" stroke-width="1.5" stroke-linecap="round" stroke-linejoin="round"/>
<path d="M3 5.25V5.25" stroke="#FEFEFE" stroke-width="1.5" stroke-linecap="round" stroke-linejoin="round"/>
<path d="M4.875 2.13748V2.13748" stroke="#FEFEFE" stroke-width="1.5" stroke-linecap="round" stroke-linejoin="round"/>
<path d="M4.875 15.9V15.9" stroke="#FEFEFE" stroke-width="1.5" stroke-linecap="round" stroke-linejoin="round"/>
<path d="M9 16.125V16.125" stroke="#FEFEFE" stroke-width="2" stroke-linecap="round" stroke-linejoin="round"/>
<path d="M1.16248 9V9" stroke="#FEFEFE" stroke-width="2" stroke-linecap="round" stroke-linejoin="round"/>
<path d="M16.875 9V9" stroke="#FEFEFE" stroke-width="2" stroke-linecap="round" stroke-linejoin="round"/>
</svg>
