<svg width="28" height="28" viewBox="0 0 28 28" fill="none" xmlns="http://www.w3.org/2000/svg">
<path fill-rule="evenodd" clip-rule="evenodd" d="M13.92 0C6.23532 0 0 6.23532 0 13.92C0 21.6047 6.23532 27.84 13.92 27.84C21.5896 27.84 27.84 21.6047 27.84 13.92C27.84 6.23532 21.5896 0 13.92 0ZM23.1144 6.41648C24.7752 8.43957 25.7717 11.0212 25.8019 13.8143C25.4093 13.7389 21.4839 12.9386 17.5283 13.4369C17.4378 13.2406 17.3622 13.0292 17.2717 12.8179C17.0301 12.2442 16.7584 11.6554 16.4866 11.0968C20.8649 9.31526 22.8578 6.74863 23.1144 6.41648ZM13.92 2.05328C16.9395 2.05328 19.7024 3.1856 21.801 5.04261C21.5896 5.34456 19.7929 7.74508 15.5656 9.33031C13.618 5.75219 11.4591 2.82325 11.127 2.37032C12.0177 2.15896 12.9538 2.05328 13.92 2.05328ZM8.86234 3.1705C9.17937 3.59323 11.293 6.53727 13.2708 10.0399C7.71488 11.5195 2.80816 11.4893 2.27974 11.4893C3.04972 7.80547 5.54082 4.74065 8.86234 3.1705ZM2.02308 13.9351C2.02308 13.8143 2.02308 13.6935 2.02308 13.5728C2.5364 13.5878 8.30369 13.6634 14.237 11.8819C14.5843 12.5461 14.9014 13.2255 15.2033 13.9049C15.0523 13.9502 14.8862 13.9955 14.7353 14.0408C8.60564 16.0185 5.34456 21.4235 5.0728 21.8764C3.18559 19.7779 2.02308 16.9848 2.02308 13.9351ZM13.92 25.8169C11.1722 25.8169 8.63584 24.8809 6.62785 23.3107C6.83922 22.8729 9.2548 18.2228 15.9581 15.8827C15.9883 15.8676 16.0035 15.8676 16.0337 15.8525C17.7095 20.1855 18.3889 23.824 18.5701 24.8657C17.1358 25.4847 15.5656 25.8169 13.92 25.8169ZM20.5478 23.7788C20.4271 23.054 19.7929 19.5816 18.2379 15.309C21.9671 14.7201 25.2281 15.6864 25.6358 15.8223C25.1225 19.1287 23.2201 21.9821 20.5478 23.7788Z" fill="#98A2B3"/>
</svg>
